<svg width="18" height="13" fill="none" xmlns="http://www.w3.org/2000/svg"><path d="M1.842 10.103V2.726C1.473 2.713 1.115 2.7.774 2.69a.334.334 0 00-.345.331v8.591c0 .176.14.322.318.332 1.778.096 4.118.196 6.325.726-1.648-1.257-3.45-1.824-4.819-2.08a.499.499 0 01-.411-.487zm14.317-7.437v7.437a.502.502 0 01-.412.49c-1.37.256-3.171.823-4.818 2.08 2.203-.527 4.537-.63 6.324-.726a.335.335 0 00.319-.331V2.985a.334.334 0 00-.335-.332c-.298 0-.666.003-1.078.013z" fill="#000"/><path d="M2.85.331v9.36c1.667.362 3.803 1.155 5.644 2.87V2.739C7.326 1.283 5.156.355 3.248.006a.333.333 0 00-.399.325zM14.752.006C12.85.351 10.674 1.28 9.506 2.74v9.825c1.845-1.715 3.977-2.507 5.645-2.869V.331a.334.334 0 00-.399-.325z" fill="#000"/></svg>