<svg width="30" height="33" fill="none" xmlns="http://www.w3.org/2000/svg"><path d="M28.977 5.467a4.433 4.433 0 01-4.43 4.44 4.433 4.433 0 01-4.43-4.44 4.433 4.433 0 014.43-4.442 4.433 4.433 0 014.43 4.442z" fill="#000"/><path d="M24.547 10.94c-3.01 0-5.453-2.455-5.453-5.467C19.095 2.455 21.537 0 24.547 0S30 2.455 30 5.467c0 3.018-2.442 5.473-5.453 5.473zm0-8.89a3.415 3.415 0 00-3.407 3.417 3.415 3.415 0 003.407 3.415 3.415 3.415 0 003.407-3.415 3.415 3.415 0 00-3.407-3.416zm4.43 25.296a4.433 4.433 0 01-4.43 4.441 4.433 4.433 0 01-4.43-4.441 4.433 4.433 0 014.43-4.441 4.433 4.433 0 014.43 4.44z" fill="#000"/><path d="M24.547 32.813c-3.01 0-5.453-2.455-5.453-5.467 0-3.019 2.449-5.467 5.453-5.467 3.005 0 5.453 2.455 5.453 5.467 0 3.012-2.442 5.466-5.453 5.466zm0-8.89a3.415 3.415 0 00-3.407 3.417 3.415 3.415 0 003.407 3.415 3.415 3.415 0 003.407-3.415 3.419 3.419 0 00-3.407-3.416zM9.89 16.406a4.433 4.433 0 11-8.867 0 4.433 4.433 0 014.43-4.441 4.439 4.439 0 014.436 4.441z" fill="#000"/><path d="M5.453 21.873C2.448 21.873 0 19.425 0 16.406c0-3.018 2.448-5.466 5.453-5.466 3.01 0 5.453 2.454 5.453 5.466s-2.442 5.467-5.453 5.467zm0-8.883a3.415 3.415 0 00-3.407 3.416 3.415 3.415 0 003.407 3.416 3.415 3.415 0 003.407-3.416 3.41 3.41 0 00-3.407-3.416z" fill="#000"/><path d="M8.675 15.753c-.473 0-.933-.25-1.19-.693a1.374 1.374 0 01.512-1.865L20.654 5.96a1.356 1.356 0 011.86.513 1.374 1.374 0 01-.51 1.865L9.345 15.573a1.33 1.33 0 01-.671.18zm12.651 11.279c-.23 0-.46-.058-.672-.18L7.997 19.617a1.374 1.374 0 01-.511-1.865 1.367 1.367 0 011.86-.513l12.657 7.236c.652.371.882 1.211.512 1.865a1.376 1.376 0 01-1.19.692z" fill="#000"/></svg>