<svg width="28" height="28" fill="none" xmlns="http://www.w3.org/2000/svg"><path d="M13.924 27.849c7.69 0 13.925-6.235 13.925-13.925S21.614 0 13.924 0 0 6.234 0 13.924c0 7.69 6.234 13.925 13.924 13.925z" fill="#FFCC4D"/><path d="M18.465 18.01c-5.903-1.815-8.93 2.725-8.93 2.725" stroke="#000" stroke-width="2" stroke-miterlimit="10" stroke-linecap="round" stroke-linejoin="round"/><path d="M7.568 11.26a1.68 1.68 0 001.664 1.664 1.68 1.68 0 001.665-1.665 1.68 1.68 0 00-1.665-1.664 1.68 1.68 0 00-1.664 1.664zm9.535 0a1.68 1.68 0 001.665 1.664 1.68 1.68 0 001.665-1.665 1.68 1.68 0 00-1.665-1.664 1.68 1.68 0 00-1.665 1.664z" fill="#000"/></svg>