<svg width="28" height="28" fill="none" xmlns="http://www.w3.org/2000/svg"><path d="M13.924 27.849c7.69 0 13.925-6.235 13.925-13.925S21.614 0 13.924 0 0 6.234 0 13.924c0 7.69 6.234 13.925 13.924 13.925z" fill="#FFCC4D"/><path d="M9.838 17.557c-.606-.152-1.21.605-.757 1.21.908 1.363 2.573 2.876 4.995 3.028h.302c2.422-.152 3.936-1.817 4.995-3.027.454-.606-.151-1.363-.757-1.211-3.027.454-5.902.454-8.778 0z" fill="#000"/><path d="M11.654 7.324c-2.573 0-3.178 2.27-3.178 2.27S7.87 7.477 5.449 7.477c-2.573 0-3.33 4.54 3.027 8.173 6.508-3.633 5.751-8.325 3.178-8.325z" fill="red"/><path d="M22.854 7.324c-2.573 0-3.027 2.12-3.027 2.12s-.606-2.12-3.027-2.12c-2.573 0-3.33 4.54 3.027 8.173 6.508-3.48 5.6-8.173 3.027-8.173z" fill="red"/></svg>